<svg xmlns="http://www.w3.org/2000/svg" viewBox="0 0 32 32">
  <rect width="32" height="32" rx="7" fill="#0a0a0a"/>
  <g transform="translate(6.715, 26.5) scale(1.5)" fill="white">
    <path d="M5.280 0.080L5.280 0.080Q4.280 0.080 3.320-0.180Q2.360-0.440 1.610-0.870Q0.860-1.300 0.460-1.840L0.460-1.840L0.860-2.320Q1.280-1.820 1.980-1.410Q2.680-1 3.550-0.760Q4.420-0.520 5.320-0.520L5.320-0.520Q6.700-0.520 7.760-0.910Q8.820-1.300 9.410-2.060Q10-2.820 10-3.880L10-3.880Q10-4.680 9.590-5.170Q9.180-5.660 8.520-5.970Q7.860-6.280 7.060-6.490Q6.260-6.700 5.470-6.960Q4.680-7.220 4.020-7.580Q3.360-7.940 2.950-8.520Q2.540-9.100 2.540-10.020L2.540-10.020Q2.540-11.320 3.230-12.230Q3.920-13.140 5.110-13.610Q6.300-14.080 7.800-14.080L7.800-14.080Q8.960-14.080 10.060-13.760Q11.160-13.440 11.920-12.840L11.920-12.840L11.560-12.280Q10.820-12.860 9.850-13.170Q8.880-13.480 7.780-13.480L7.780-13.480Q6.440-13.480 5.400-13.080Q4.360-12.680 3.780-11.920Q3.200-11.160 3.180-10.080L3.180-10.080Q3.180-9.300 3.590-8.800Q4-8.300 4.660-7.980Q5.320-7.660 6.130-7.430Q6.940-7.200 7.730-6.960Q8.520-6.720 9.190-6.350Q9.860-5.980 10.260-5.420Q10.660-4.860 10.660-3.960L10.660-3.960Q10.660-2.620 9.950-1.730Q9.240-0.840 8.020-0.380Q6.800 0.080 5.280 0.080Z"/>
  </g>
</svg>
